<?xml version="1.0" encoding="UTF-8"?>
<svg width="52px" height="40px" viewBox="0 0 52 40" version="1.1" xmlns="http://www.w3.org/2000/svg" xmlns:xlink="http://www.w3.org/1999/xlink">
    <title>Comprehensive-Nanny-Profiles</title>
    <g id="Page-1" stroke="none" stroke-width="1" fill="none" fill-rule="evenodd">
        <g id="Comprehensive-Nanny-Profiles" transform="translate(0.000000, -0.000000)" fill="#25373F" fill-rule="nonzero">
            <path d="M1.29908737,0 L50.7009126,0 C51.4184318,0 52,0.581568181 52,1.29908737 L52,38.0108935 C52,38.7284127 51.4184318,39.3099809 50.7009126,39.3099809 L1.29908737,39.3099809 C0.581568181,39.3099809 0,38.7284127 0,38.0108935 L0,1.29908737 C0,0.581568181 0.581568181,0 1.29908737,0 Z M10.4915152,18.1375003 C10.4915152,19.8469583 7.89271103,19.8469583 7.89271103,18.1375003 C7.89271103,16.0925706 8.84436806,14.1691157 10.4531216,12.9184923 C10.3517877,12.7756179 10.2573773,12.6277082 10.1711491,12.4753928 C9.76518434,11.7547266 9.53419352,10.9251737 9.53419352,10.0440098 C9.53419352,7.30170181 11.7572442,5.07865114 14.4995522,5.07865114 C17.2412307,5.07865114 19.4649108,7.30170181 19.4649108,10.0440098 C19.4649108,11.075601 19.1445448,12.0794984 18.5453533,12.9184923 C20.1547363,14.1691157 21.1063933,16.0925706 21.1063933,18.1375003 C21.1063933,19.8469583 18.5075891,19.8469583 18.5075891,18.1375003 C18.5075891,16.6621802 17.715171,15.3240698 16.4217483,14.6178799 C15.818151,14.8734174 15.1547605,15.0093684 14.4995522,15.0093684 C13.8443438,15.0093684 13.1803239,14.8734174 12.5767266,14.6178799 C11.2839333,15.3240698 10.4915152,16.6621802 10.4915152,18.1375003 Z M7.02098816,23.9273766 L21.9774867,23.9273766 C22.6950059,23.9273766 23.2772035,24.5095742 23.2772035,25.2270934 L23.2772035,32.931613 C23.2772035,33.6491322 22.6950059,34.2313297 21.9774867,34.2313297 L7.02098816,34.2313297 C6.30346898,34.2313297 5.7219008,33.6491322 5.7219008,32.931613 L5.7219008,25.2270934 C5.7219008,24.5095742 6.30346898,23.9273766 7.02098816,23.9273766 Z M20.6783994,26.5261807 L8.32070493,26.5261807 L8.32070493,31.6325256 L20.6783994,31.6325256 L20.6783994,26.5261807 Z M14.4995522,7.67745528 C13.1922826,7.67745528 12.1329977,8.73674018 12.1329977,10.0440098 C12.1329977,11.3714203 13.1966884,12.4105643 14.4995522,12.4105643 C15.8036747,12.4105643 16.8661067,11.360091 16.8661067,10.0440098 C16.8661067,8.73674018 15.8061924,7.67745528 14.4995522,7.67745528 L14.4995522,7.67745528 Z M26.0566463,9.51027621 C24.3478177,9.51027621 24.3478177,6.91147208 26.0566463,6.91147208 L44.9790118,6.91147208 C46.6878404,6.91147208 46.6878404,9.51027621 44.9790118,9.51027621 L26.0566463,9.51027621 Z M29.0028807,32.3985088 C27.2934227,32.3985088 27.2934227,29.7990753 29.0028807,29.7990753 L44.9790118,29.7990753 C46.6878404,29.7990753 46.6878404,32.3985088 44.9790118,32.3985088 L29.0028807,32.3985088 Z M26.0566463,15.232177 C24.3478177,15.232177 24.3478177,12.6333729 26.0566463,12.6333729 L44.9790118,12.6333729 C46.6878404,12.6333729 46.6878404,15.232177 44.9790118,15.232177 L26.0566463,15.232177 Z M29.0028807,20.9540778 C27.2934227,20.9540778 27.2934227,18.3552737 29.0028807,18.3552737 L44.9790118,18.3552737 C46.6878404,18.3552737 46.6878404,20.9540778 44.9790118,20.9540778 L29.0028807,20.9540778 Z M29.0028807,26.676608 C27.2934227,26.676608 27.2934227,24.0771745 29.0028807,24.0771745 L44.9790118,24.0771745 C46.6878404,24.0771745 46.6878404,26.676608 44.9790118,26.676608 L29.0028807,26.676608 Z M49.4011959,2.59880413 L2.59880413,2.59880413 L2.59880413,36.7111767 L49.4011959,36.7111767 L49.4011959,2.59880413 Z" id="Shape"></path>
        </g>
    </g>
</svg>