<?xml version="1.0" encoding="UTF-8"?>
<svg width="53px" height="53px" viewBox="0 0 53 53" version="1.1" xmlns="http://www.w3.org/2000/svg" xmlns:xlink="http://www.w3.org/1999/xlink">
    <title>Daily nanny profile updates</title>
    <g id="Page-1" stroke="none" stroke-width="1" fill="none" fill-rule="evenodd">
        <g id="Daily-nanny-profile-updates" transform="translate(0.451014, 0.666667)" fill="#25373F">
            <path d="M0.0153169338,23.2454593 C1.42122716,10.2197732 12.2219343,0 25.4445325,0 C32.9202923,0 39.631459,3.2753599 44.2979601,8.46926027 L44.2979601,5.22798685 C44.2979601,3.78433056 45.4682449,2.61399342 46.9119535,2.61399342 C48.355662,2.61399342 49.5259469,3.78433056 49.5259469,5.22798685 L49.5259469,15.6839605 C49.5259469,16.3772439 49.250432,17.0421131 48.7603082,17.5323414 C48.2699231,18.0225436 47.6051845,18.297954 46.9119535,18.297954 L36.4559798,18.297954 C35.0122712,18.297954 33.8419864,17.1276168 33.8419864,15.6839605 C33.8419864,14.2402781 35.0122712,13.0699671 36.4559798,13.0699671 L41.3363055,13.0699671 C37.5933283,8.27339374 31.8561356,5.22798685 25.4445325,5.22798685 C15.0200313,5.22798685 6.34643514,13.306429 5.21311216,23.8064223 C5.05818077,25.2417661 3.76903763,26.2797829 2.33369384,26.1247731 C0.898350052,25.9700247 -0.139614456,24.6808031 0.0153169338,23.2454593 Z M49.6663183,26.1550954 C51.1016621,26.3098438 52.1396789,27.5990654 51.9846691,29.0344091 C50.5788635,42.0601998 39.778104,52.2798685 26.5554797,52.2798685 C19.0797722,52.2798685 12.3684486,49.0045347 7.70199985,43.8105298 L7.70199985,47.0518816 C7.70199985,48.4955902 6.53168886,49.665875 5.08800643,49.665875 C3.64435014,49.665875 2.47401301,48.4955902 2.47401301,47.0518816 L2.47401301,36.5959079 C2.47401301,35.9026769 2.74942335,35.2376769 3.23962554,34.7475532 C3.72985387,34.2574294 4.39472309,33.9819145 5.08800643,33.9819145 L15.5439801,33.9819145 C16.9876626,33.9819145 18.1579735,35.1521994 18.1579735,36.5959079 C18.1579735,38.0396165 16.9876626,39.2099013 15.5439801,39.2099013 L10.6636283,39.2099013 C14.4065532,44.0065793 20.1440073,47.0518816 26.5554797,47.0518816 C36.9800855,47.0518816 45.653577,38.9733349 46.7870046,28.4734462 C46.941753,27.0381024 48.2309746,26.0000856 49.6663183,26.1550954 Z" id="Shape"></path>
        </g>
    </g>
</svg>