<?xml version="1.0" encoding="UTF-8"?>
<svg width="120px" height="33px" viewBox="0 0 120 33" version="1.1" xmlns="http://www.w3.org/2000/svg" xmlns:xlink="http://www.w3.org/1999/xlink">
    <title>logo-white</title>
    <defs>
        <polygon id="path-1" points="0 0 0 32.8981723 120 32.8981723 120 0"></polygon>
    </defs>
    <g id="Page-1" stroke="none" stroke-width="1" fill="none" fill-rule="evenodd">
        <g id="logo-white" transform="translate(-0.000000, 0.026733)">
            <g id="g8" transform="translate(60.000000, 16.449086) scale(-1, 1) rotate(-180.000000) translate(-60.000000, -16.449086) translate(0.000000, 0.000000)">
                <g id="g10" transform="translate(0.000000, 0.000000)">
                    <g id="g12" transform="translate(0.000000, 0.000000)">
                        <g id="g14-Clipped" transform="translate(0.000000, 0.000000)">
                            <mask id="mask-2" fill="white">
                                <use xlink:href="#path-1"></use>
                            </mask>
                            <g id="path16"></g>
                            <g id="g14" mask="url(#mask-2)">
                                <g transform="translate(-0.093654, -0.004993)">
                                    <g id="Group" stroke-width="1" fill="none" fill-rule="evenodd" transform="translate(-0.000000, 0.000000)">
                                        <path d="M29.1932639,7.56184426 C29.4778211,6.90578181 29.6372258,6.17232244 29.6372258,5.40032928 C29.6372258,4.63031221 29.4778211,3.89915828 29.1932639,3.24342519 C28.9064012,2.5850573 28.4966915,2.00886189 28.0003632,1.53058183 C27.0073771,0.573955836 25.6708804,0.00681751638 24.2454596,0.00454501092 C23.4553522,0.00454501092 22.6425199,0.184468161 21.8728321,0.560287868 L21.8705267,0.560287868 L19.4297241,1.76059891 C18.8194411,2.06122832 18.5641959,2.80143934 18.8671966,3.41402777 C19.1678919,4.02694555 19.9076089,4.27955594 20.5201974,3.97886065 L22.9590239,2.77871429 C23.3914586,2.56694313 23.8219173,2.47577943 24.2454596,2.47350692 C24.814574,2.47350692 25.3724905,2.64664549 25.8437884,2.95392775 C26.3173917,3.2638448 26.6977894,3.7035252 26.9253693,4.22718951 C27.0778577,4.57794578 27.1667818,4.9675652 27.1667818,5.39802384 C27.1644764,6.04716997 26.9731248,6.60278109 26.6500338,7.06518654 C26.3266135,7.527592 25.8688189,7.89185157 25.3451546,8.10592818 C24.9967038,8.24952417 24.6255279,8.32461566 24.2454596,8.32461566 C23.8242227,8.32461566 23.393764,8.23141 22.9613293,8.01963884 L20.5201974,6.81916313 L15.3629274,4.28647226 L10.2076334,1.75605389 L7.76683084,0.555742857 L7.76455833,0.555742857 C6.99493648,0.177650644 6.17976572,0 5.39193089,0 C4.324018,0.00227250546 3.30392653,0.321147837 2.44320685,0.883708211 C1.58252011,1.44630152 0.87435471,2.25485238 0.446300312,3.23650887 C0.159371796,3.89487675 1.53202722e-16,4.62800677 1.53202722e-16,5.40032928 C1.53202722e-16,6.17232244 0.159371796,6.90578181 0.446300312,7.56184426 C0.730923387,8.21757736 1.14076481,8.79624288 1.63943155,9.27445707 C2.62991458,10.2312148 3.96881552,10.7983531 5.3942034,10.8003292 C6.18431073,10.8003292 6.99720899,10.6205049 7.76910335,10.2447181 L10.2099389,9.04457174 L10.2099389,9.0422663 C10.8202219,8.74157101 11.0751377,8.00119532 10.7724663,7.39091233 C10.471771,6.7783239 9.73172469,6.52538416 9.11946561,6.82607945 L6.67843246,8.02622581 C6.24807262,8.23799697 5.81544028,8.33153198 5.3942034,8.33153198 C4.82495725,8.33153198 4.26707362,8.15829461 3.79574282,7.85101235 C3.32213951,7.5410953 2.93960109,7.10174424 2.71188945,6.57544515 C2.55933517,6.22468887 2.47054279,5.83539881 2.47054279,5.40263472 C2.47281529,4.75579404 2.66406803,4.20215901 2.98742251,3.73744811 C3.31074404,3.275372 3.76843982,2.91078308 4.29213705,2.69670648 C4.64052202,2.55551473 5.01393748,2.47805193 5.3942034,2.47805193 C5.81771279,2.48032444 6.24580012,2.57155401 6.68070497,2.78332517 L9.11946561,3.98347153 L9.12177105,3.98347153 L14.2767356,6.51385696 L19.4297241,9.0422663 L21.8705267,10.2424127 C22.6402144,10.6205049 23.4553522,10.7983531 24.2454596,10.7983531 C25.3132078,10.7983531 26.3335298,10.4769089 27.1941177,9.91438144 C28.0570111,9.351854 28.7631346,8.54560858 29.1932639,7.56184426" id="path20" fill="#FFFFFF" fill-rule="nonzero"></path>
                                        <path d="M24.3136347,28.6250057 C25.1857499,26.9509267 25.6801022,25.0219319 25.6801022,22.9789824 C25.6801022,20.9360329 25.1857499,19.0090142 24.3136347,17.3349351 C23.8765891,16.4967429 23.3460085,15.7224443 22.7357255,15.0278481 C22.1254425,14.3329225 21.4334811,13.7157232 20.6749912,13.1989752 C18.9946546,12.0439496 16.9750888,11.369773 14.8188434,11.369773 C12.6622687,11.369773 10.6450084,12.0439496 8.96236632,13.1989752 C7.44578181,14.2374114 6.19570619,15.6631616 5.32362399,17.3372406 C4.45150885,19.0113196 3.95514755,20.9403145 3.95514755,22.9812878 C3.95514755,25.0242373 4.45150885,26.9532322 5.32362399,28.6250057 C6.19570619,30.2990848 7.44578181,31.7248349 8.96236632,32.7636005 C9.52686985,33.148609 10.2942521,33.005013 10.6792607,32.4424856 C11.0662453,31.8799581 10.9226493,31.1122465 10.3581458,30.7252619 C9.18764078,29.923298 8.20173569,28.8074649 7.51178327,27.4818367 C6.81959128,26.1562085 6.42341783,24.62342 6.42341783,22.9789824 C6.42341783,21.3368502 6.81959128,19.8040617 7.51178327,18.4784335 C8.20173569,17.1528054 9.18533534,16.0366429 10.3581458,15.2350084 C11.6557793,14.3467551 13.1770406,13.841205 14.816538,13.8388996 C16.4557061,13.841205 17.9769673,14.3467551 19.2749302,15.2350084 L19.2769063,15.2350084 C20.4451059,16.0343374 21.4311756,17.1504999 22.1231371,18.4761281 C22.8131224,19.8017563 23.2093288,21.3368502 23.2093288,22.9789824 C23.2093288,24.62342 22.8131224,26.1562085 22.1231371,27.4818367 C21.4334811,28.8097703 20.4474113,29.923298 19.2769063,30.7252619 C18.7147082,31.1099411 18.5711122,31.8799581 18.9561208,32.4424856 C19.3431054,33.005013 20.1104877,33.148609 20.6726858,32.7636005 C22.1893362,31.7248349 23.4415196,30.2990848 24.3136347,28.6250057" id="path22" fill="#FFFFFF" fill-rule="nonzero"></path>
                                        <path d="M19.6777236,24.7531834 C19.6777236,23.7509756 19.3704413,22.8103559 18.846777,22.0383627 C18.3231127,21.2614294 17.5830664,20.6488409 16.7109512,20.2799705 C16.1303096,20.0339471 15.4880798,19.8949619 14.8208195,19.8949619 C13.818941,19.8949619 12.8786507,20.2025736 12.1043521,20.7262379 C11.3280774,21.2502315 10.715489,21.9902778 10.3466186,22.8627223 C10.1005951,23.4436933 9.96193938,24.0859231 9.96421652,24.7531834 C9.96193938,25.7553912 10.2715271,26.6960109 10.7951914,27.4703095 C11.3188557,28.2469135 12.058902,28.8598313 12.9310172,29.2287018 C13.5116588,29.4747252 14.1538886,29.6137103 14.823125,29.6114331 C15.8250035,29.6137103 16.7656231,29.3037933 17.5372869,28.7801289 C18.313891,28.2561353 18.9264794,27.516089 19.2953499,26.6436445 C19.5410439,26.0626735 19.6777236,25.4204437 19.6777236,24.7531834 Z M17.2072796,24.7531834 C17.2049742,25.2518172 17.0570966,25.7053303 16.799546,26.0880333 C16.5423248,26.4681017 16.1757597,26.7734078 15.749912,26.9532322 C15.4653548,27.0741031 15.1534616,27.1399728 14.8208195,27.1399728 C14.3221857,27.1399728 13.8693314,26.9920953 13.4866283,26.7325686 C13.1062306,26.475018 12.8012538,26.108453 12.6214295,25.6826052 C12.5005585,25.3954132 12.4346888,25.0858255 12.4346888,24.750878 C12.4346888,24.2542202 12.5825663,23.8010365 12.842093,23.4163574 C13.0996437,23.0336543 13.4662087,22.7306535 13.8920564,22.5508292 C14.1766136,22.4299583 14.4885068,22.3640885 14.823125,22.3640885 C15.3197827,22.366394 15.772637,22.5142715 16.1576456,22.7714928 C16.5400193,23.0290434 16.84302,23.3956084 17.0228444,23.8217855 C17.1391045,24.1086482 17.2049742,24.4205413 17.2072796,24.7531834" id="path24" fill="#FFFFFF" fill-rule="nonzero"></path>
                                    </g>
                                    <path d="M41.7598423,30.4001849 C42.137516,30.4347801 42.4122115,30.2834873 42.5838915,29.9462688 C42.755609,29.6090503 42.8757439,29.19835 42.9444458,28.7141302 C43.0131103,28.2298727 43.0388642,27.7284118 43.02167,27.2095967 C43.0045132,26.6907817 42.9959162,26.2671317 42.9959162,25.9385338 L42.9959162,24.8620171 L42.9959162,23.3056097 L42.9830579,21.5676434 L42.957304,19.9333874 L42.9444458,18.7012488 L42.9444458,18.1564968 C42.9787594,18.1910543 43.0345657,18.37698 43.1117899,18.7141984 C43.1890515,19.0514169 43.2834699,19.4578634 43.3950451,19.9333874 C43.5066203,20.408949 43.6353523,20.9147767 43.7813159,21.4508705 C43.927242,21.9870019 44.0774294,22.47988 44.2319152,22.9294669 C44.249072,22.9813786 44.3048783,23.1888745 44.3993341,23.5520299 C44.4937525,23.9151854 44.6310816,24.2913281 44.8113213,24.6804206 C44.9915611,25.0695507 45.21901,25.4110982 45.4937055,25.7050633 C45.7683637,25.9990284 46.1031267,26.102814 46.4979571,26.0163448 C46.8069289,26.0855352 47.0773258,25.8606852 47.3090733,25.3419079 C47.5408208,24.8230928 47.7382547,24.1400353 47.9013003,23.2926224 C48.0643833,22.4452471 48.2017123,21.5027445 48.3132875,20.4651521 C48.4248627,19.4275597 48.5278782,18.4418413 48.6222966,17.5079968 C48.7167151,16.5741524 48.8025364,15.7613723 48.8797606,15.0696189 C48.9570223,14.3778656 49.0385824,13.9368615 49.1244037,13.746682 C49.3990619,13.3835266 49.7595788,13.3575896 50.2059169,13.6688334 C50.6522178,13.9801149 51.1586608,14.4903094 51.7251339,15.1993039 C51.7594475,15.1474299 51.7809028,15.048011 51.7894999,14.9010097 C51.7980596,14.7540083 51.763746,14.5724118 51.6864844,14.3562577 C51.6092601,14.1401036 51.463334,13.8893543 51.2487433,13.6040098 C51.0341899,13.3186653 50.7294794,13.0117129 50.3346116,12.683115 C49.7166307,12.3718335 49.2144862,12.3329469 48.8282529,12.5663797 C48.4420195,12.7998503 48.1801822,13.175993 48.0428905,13.6948081 C48.008577,13.8677464 47.9570692,14.265497 47.8883673,14.8880224 C47.8197028,15.5105853 47.7424411,16.2369339 47.6566198,17.0670304 C47.5707985,17.8970893 47.4763801,18.7617433 47.373402,19.6610302 C47.2703865,20.5603171 47.1630724,21.390376 47.0514972,22.1512821 C46.9399594,22.9121505 46.8197497,23.5347135 46.6910177,24.018971 C46.5622484,24.5031908 46.4378149,24.7280407 46.3176426,24.6934079 C46.2146271,24.7625983 46.1030519,24.7150534 45.9828796,24.5507733 C45.8627074,24.3864932 45.7382739,24.1486935 45.6095045,23.8374121 C45.4807725,23.5261306 45.3520405,23.1629751 45.2232712,22.747908 L44.8370004,21.5027821 L44.5022748,20.3484545 L44.2576317,19.5054083 C44.0859517,18.9174405 43.9400629,18.3813091 43.8198532,17.8971269 C43.6996809,17.4129447 43.5881057,16.8940921 43.4851276,16.3407195 C43.3821121,15.7873469 43.2876937,15.1604548 43.2018724,14.4600433 C43.1160511,13.7596693 43.0387894,12.9166232 42.9701249,11.9309048 C42.6268022,11.8963096 42.4036144,11.939563 42.3006363,12.0606273 C42.1976208,12.1816917 42.0516947,12.2940602 41.8628578,12.3978458 C41.8628578,12.7264437 41.8671937,13.2538793 41.8757535,13.9801902 C41.8843132,14.7065011 41.8886117,15.5236103 41.8886117,16.4315178 C41.8886117,17.3394252 41.8929102,18.2905861 41.9015073,19.2849251 C41.910067,20.2793017 41.9143656,21.2087794 41.9143656,22.0735087 C41.9143656,22.1081039 41.9272612,22.2896629 41.9530151,22.6182608 C41.9787316,22.946821 42.0001869,23.3445717 42.0173811,23.8115127 C42.0345379,24.2784161 42.051732,24.7928644 42.0688888,25.3549328 C42.086083,25.9170012 42.0817844,26.4573865 42.0560306,26.9762015 C42.0302767,27.4949789 41.9873287,27.9575532 41.9272612,28.3639997 C41.8671937,28.7704086 41.7685142,29.0600822 41.6311851,29.2329829 C41.4251915,29.3540472 41.1805484,29.2762363 40.8972931,28.9995123 C40.6140753,28.722826 40.3093647,28.3293669 39.9831988,27.8192477 C39.6569955,27.3091285 39.3307922,26.7210855 39.0047011,26.0553067 C38.6785726,25.3895657 38.3780858,24.723674 38.1034276,24.0579329 C37.8287695,23.3921542 37.5927234,22.760933 37.3953269,22.164307 C37.1979304,21.567681 37.0648438,21.0964109 36.9961606,20.7505719 C36.944664,20.6122287 36.8631151,20.4911643 36.7515361,20.3874164 C36.6399684,20.2836308 36.5240947,20.2058199 36.4039149,20.1539459 C36.2837463,20.1020343 36.1678726,20.080464 36.0562937,20.0890846 C35.9447259,20.0977428 35.8631658,20.1452877 35.8116692,20.2317192 C35.9661738,20.8542822 36.1721674,21.5330858 36.4296688,22.2680173 C36.6871739,23.0029864 36.9789888,23.7466138 37.3051697,24.4988617 C37.6313356,25.2511472 37.9789568,25.9818249 38.3480334,26.6908194 C38.7171099,27.3998139 39.0947836,28.0267436 39.4810543,28.5714956 C39.8672877,29.1162099 40.253521,29.557214 40.6397918,29.8944325 C41.0260251,30.2316509 41.3994002,30.4002602 41.7599171,30.4002602 L41.7598423,30.4001849 Z M57.1323356,19.7066192 C57.1151211,19.6008902 57.0765006,19.3806855 57.0163619,19.0458132 C56.9562232,18.7109408 56.8917808,18.3188306 56.8229974,17.8694441 C56.7542515,17.4200192 56.6941128,16.9486123 56.6425439,16.4551465 C56.5909751,15.9616423 56.560887,15.4946087 56.5523172,15.0540842 C56.5437473,14.6135212 56.5695317,14.2389046 56.6296704,13.9305412 C56.6898091,13.6221778 56.7886432,13.4326636 56.9260977,13.3621521 C57.3213965,13.1683029 57.7253025,13.2344026 58.1377784,13.5604514 C58.5502917,13.8864619 59.031551,14.3843011 59.5814814,15.0540458 C59.6330503,15.0540458 59.6373539,14.9835342 59.5943923,14.8425495 C59.5513934,14.7015647 59.4826474,14.5473831 59.388117,14.3799661 L59.1045258,13.8776767 L58.8854143,13.5472545 C58.7479224,13.371014 58.5502543,13.1727146 58.2924475,12.9524331 C58.0346407,12.7321517 57.7596568,12.5559111 57.4674583,12.4237116 C57.1752972,12.2915504 56.8960471,12.2342741 56.6295956,12.2519212 C56.3631815,12.2695299 56.1441075,12.4281617 55.9722238,12.7277399 C55.8863007,12.9392362 55.8347318,13.1991469 55.8175173,13.507587 C55.8003401,13.8160271 55.8003401,14.1288406 55.8175173,14.4460658 C55.8347318,14.7632528 55.8605163,15.0540842 55.8948705,15.3184066 C55.9292248,15.5827674 55.9550092,15.7766166 55.9722238,15.8999926 C55.6112793,15.2126776 55.1988034,14.56058 54.7347587,13.9437765 C54.270714,13.326973 53.8152391,12.8423308 53.3684089,12.4898497 C52.9215413,12.1372919 52.5090654,11.9478928 52.1309064,11.9214606 C51.7527848,11.8950283 51.4606237,12.1197216 51.2543858,12.5955787 C51.134071,13.0537887 51.134071,13.5692366 51.2543858,14.1420375 C51.3747006,14.7148384 51.5551915,15.2303247 51.7957838,15.6884963 C52.1566908,16.3229469 52.5348499,16.904533 52.9301112,17.4332545 C53.3254099,17.9619761 53.7464557,18.4113626 54.1933607,18.7814524 C54.6402657,19.1515421 55.1085767,19.4203147 55.5984058,19.5877317 C56.088235,19.7551487 56.5995075,19.7948162 57.1323356,19.7066959 L57.1323356,19.7066192 Z M52.30663,12.8647291 C52.4821795,12.8304553 52.7630281,12.9591129 53.1492141,13.2506648 C53.5354002,13.5422539 53.9391297,13.9495454 54.3604026,14.4726885 C54.7816756,14.9958689 55.1634662,15.6046966 55.5057744,16.299321 C55.8480826,16.9939827 56.0718671,17.7272119 56.1772045,18.4990085 L55.8744169,18.4990085 L55.4136233,18.3446267 C54.7465886,17.9158675 54.1761005,17.4141549 53.7021588,16.839601 C53.2282172,16.2650471 52.8595746,15.7076302 52.5962695,15.1673502 C52.3330025,14.6270702 52.1749965,14.1425692 52.1223278,13.7137726 C52.0696591,13.284976 52.1311187,13.0019366 52.30663,12.8647665 L52.30663,12.8647291 Z M60.2557893,19.9586745 C60.2557893,19.4683495 60.2512909,18.9781769 60.2425609,18.4878519 C60.2337929,17.997565 60.2250629,17.5248115 60.2162949,17.0695533 C60.2075649,16.6143332 60.198835,16.1853369 60.1900669,15.7825645 C60.181337,15.3797921 60.1681849,15.0208532 60.1506869,14.7057096 C60.1506869,14.7757288 60.1900669,14.9464887 60.2688651,15.2178751 C60.3476633,15.4892614 60.4570734,15.8000598 60.5971336,16.1502702 C60.7371938,16.5005186 60.890368,16.8725695 61.0566943,17.2665371 C61.2230205,17.6605428 61.4024608,18.0107151 61.5950531,18.3171682 C61.7876073,18.6235832 61.9845837,18.8643624 62.185944,19.0394675 C62.3872663,19.2145346 62.5755127,19.2670967 62.750607,19.1970393 C63.1357917,19.0219342 63.4071441,18.768005 63.5647023,18.435328 C63.7222986,18.1026891 63.8360928,17.7217953 63.9061229,17.2927991 C63.976153,16.8638409 64.0462212,16.386666 64.1162513,15.8613504 C64.1862814,15.336073 64.3438777,14.7844955 64.5889641,14.206656 C64.6940283,13.9439982 64.8472025,13.7513978 65.0485628,13.6288165 C65.2498851,13.5062353 65.4424774,13.4186827 65.6263017,13.3661588 C65.8101641,13.3136348 65.9589924,13.2829895 66.0727865,13.2742609 C66.1865807,13.2654942 66.2259607,13.2348489 66.1909647,13.182325 C65.7532479,12.8496099 65.3768314,12.7357954 65.0616768,12.8408813 C64.7465604,12.9459292 64.4795539,13.1779417 64.2606956,13.5368806 C64.0418372,13.8958577 63.8623969,14.3248539 63.7223367,14.8239075 C63.5822765,15.322923 63.4553684,15.8044431 63.3415742,16.2684681 C63.2277801,16.732493 63.1270999,17.1264987 63.0395718,17.450409 C62.9520437,17.7743193 62.8557475,17.9363125 62.7507214,17.9363125 C62.5931251,17.9187791 62.4224148,17.7699359 62.2385905,17.4897829 C62.0547663,17.2095917 61.866558,16.8594195 61.6739656,16.4391518 C61.4813733,16.0189222 61.297549,15.5592806 61.1224547,15.0602652 C60.9473604,14.5612116 60.7854181,14.0928415 60.6365899,13.6550785 C60.4877616,13.2173155 60.3695834,12.8408432 60.2820553,12.5256615 C60.1945272,12.2104798 60.1419951,12.0178794 60.124459,11.947822 C59.8618366,11.947822 59.6998943,11.9390935 59.6386323,11.9215601 C59.5773321,11.9040648 59.47669,11.9915793 59.3366298,12.1841797 C59.4241579,13.7250977 59.454808,15.1828846 59.4285419,16.5573497 C59.4022759,17.9317767 59.3628959,19.1269058 59.3103638,20.1425082 C59.3103638,20.3001181 59.3497819,20.378904 59.4285419,20.378904 C59.5073401,20.378904 59.5948682,20.3439135 59.6911644,20.2738562 C59.7874987,20.2037988 59.8881407,20.1337415 59.9932049,20.0636842 C60.098231,19.993665 60.1857592,19.9586363 60.2557893,19.9586363 L60.2557893,19.9586745 Z M67.1487715,19.9586745 C67.1487715,19.4683495 67.1442351,18.9781769 67.1355052,18.4878519 C67.1267372,17.997565 67.1180073,17.5248115 67.1092774,17.0695533 C67.1005094,16.6143332 67.0917795,16.1853369 67.0830115,15.7825645 C67.0742817,15.3797921 67.0611297,15.0208532 67.0436318,14.7057096 C67.0436318,14.7757288 67.0830115,14.9464887 67.1618092,15.2178751 C67.2406068,15.4892614 67.3500162,15.8000598 67.4900755,16.1502702 C67.6301348,16.5005186 67.783308,16.8725695 67.9496332,17.2665371 C68.1159583,17.6605428 68.2953974,18.0107151 68.4879884,18.3171682 C68.6805414,18.6235832 68.8775164,18.8643624 69.0788755,19.0394675 C69.2802345,19.2145346 69.4684416,19.2670967 69.6435348,19.1970393 C70.0287169,19.0219342 70.3000675,18.768005 70.4576628,18.435328 C70.6152199,18.1026891 70.7290133,17.7217953 70.799043,17.2927991 C70.8690726,16.8638409 70.9391785,16.386666 71.0093225,15.8613504 C71.0790853,15.336073 71.2369093,14.7844955 71.4820322,14.206656 C71.586867,13.9439982 71.7401164,13.7513978 71.9413992,13.6288165 C72.142682,13.5062353 72.335578,13.4186827 72.5193248,13.3661588 C72.7030717,13.3136348 72.8517465,13.2829895 72.9657305,13.2742609 C73.0793333,13.2654942 73.1189799,13.2348489 73.0839079,13.182325 C72.6462703,12.8496099 72.2696274,12.7357954 71.9547418,12.8408813 C71.639475,12.9459292 71.3726228,13.1779417 71.1538039,13.5368806 C70.9346039,13.8958577 70.7553173,14.3248539 70.6152962,14.8239075 C70.4751988,15.322923 70.3482915,15.8044431 70.2344981,16.2684681 C70.1207047,16.732493 70.0200251,17.1264987 69.9324976,17.450409 C69.8449701,17.7743193 69.7486745,17.9363125 69.6436491,17.9363125 C69.4860538,17.9187791 69.3153447,17.7699359 69.1315216,17.4897829 C68.9476986,17.2095917 68.7594915,16.8594195 68.5669005,16.4391518 C68.3743475,16.0189222 68.1904863,15.5592806 68.0153932,15.0602652 C67.8403,14.5612116 67.6783588,14.0928415 67.5295315,13.6550785 C67.3807042,13.2173155 67.2625268,12.8408432 67.1749993,12.5256615 C67.0874718,12.2104798 67.03494,12.0178794 67.017404,11.947822 C66.7548214,11.947822 66.5928421,11.9390935 66.5315805,11.9215601 C66.4703188,11.9040648 66.3696393,11.9915793 66.22958,12.1841797 C66.3171076,13.7250977 66.3477574,15.1828846 66.3214916,16.5573497 C66.2952638,17.9317767 66.2558459,19.1269058 66.2033141,20.1425082 C66.2033141,20.3001181 66.242732,20.378904 66.3214916,20.378904 C66.4002892,20.378904 66.4878167,20.3439135 66.5841123,20.2738562 C66.6804459,20.2037988 66.7810873,20.1337415 66.8861508,20.0636842 C66.9911762,19.993665 67.0787038,19.9586363 67.1487715,19.9586363 L67.1487715,19.9586745 Z M74.7614178,13.8949633 C75.1501904,13.7024716 75.5938181,14.0045231 76.0926692,14.8007368 C76.5915203,15.5969505 76.9931783,16.8876311 77.297275,18.6726643 C77.297275,18.6901497 77.3524983,18.6901497 77.4622087,18.6726643 C77.5722873,18.6551409 77.6864156,18.6288937 77.8045936,18.5938849 C77.9231398,18.5589141 78.0328502,18.5151435 78.1344612,18.4626492 C78.2357041,18.410155 78.2865096,18.3663844 78.2865096,18.3313755 C78.2865096,18.0689042 78.2695744,17.7539006 78.2357041,17.3863646 C78.2022019,17.0188667 78.1639137,16.6163981 78.1215758,16.1788824 C78.0792379,15.7413287 78.0497854,15.277566 78.0328502,14.7875942 C78.0159151,14.2976605 78.0159151,13.8075363 78.0328502,13.3176027 C78.4893634,13.7200713 78.9756972,14.0263513 79.4911153,14.2363664 C80.0069016,14.4463434 80.5013348,14.5776172 80.9747832,14.6301114 C81.1441348,14.5426083 81.2328604,14.4857332 81.241328,14.459486 C81.2497955,14.4332008 81.2115073,14.3851255 81.1271997,14.3151078 C80.4847678,14.1226162 79.9222258,13.8601068 79.440678,13.5275797 C78.958762,13.1950907 78.497831,12.8275547 78.058253,12.425086 C78.058253,11.8650584 78.0667206,11.2613364 78.0836557,10.6138056 C78.1005909,9.96627489 78.1090585,9.31874415 78.1090585,8.6712896 C78.1090585,8.02379695 78.1046406,7.38502796 78.096173,6.7550207 C78.0877054,6.12501344 78.0542033,5.55622408 77.9949302,5.04872882 C77.9356571,4.54127165 77.8513494,4.10812928 77.7412708,3.74935504 C77.6315604,3.39058461 77.4835618,3.14994911 77.2976431,3.02746378 C77.1621618,2.93998352 77.0056956,2.88309315 76.8282445,2.85684221 C76.6507934,2.83059509 76.4733423,2.82620279 76.295523,2.84371865 C76.1180719,2.86123451 75.9490884,2.90060901 75.7885725,2.96184215 C75.6276884,3.02309053 75.496625,3.10622802 75.3953821,3.21122796 C75.0739821,3.54373603 74.8457255,3.96814713 74.7106123,4.48435843 C74.575131,5.00057734 74.5077585,5.56502392 74.5077585,6.17750769 C74.5077585,6.78999147 74.575131,7.41999873 74.7106123,8.06752947 C74.8457255,8.71506021 75.0275945,9.33634382 75.2558511,9.93130412 C75.4841077,10.5262644 75.7631698,11.0644639 76.0926692,11.5456739 C76.4225368,12.026922 76.7818568,12.3988389 77.1706294,12.6613483 C77.2214349,13.6063592 77.2468376,14.5338466 77.2468376,15.4438486 C77.0774859,14.9888476 76.8326623,14.4988758 76.5112623,13.973857 C76.1898623,13.4488383 75.7926222,13.0375698 75.3191739,12.7400897 C74.79492,12.4951038 74.3512923,12.5213509 73.9879225,12.818831 C73.6241846,13.1163112 73.4003459,13.5713122 73.31567,14.1838341 C73.2309942,14.9013444 73.1636217,15.4963428 73.1128162,15.9688673 C73.0620107,16.4413537 73.0196728,16.8876311 72.9858025,17.3076232 C72.9523003,17.7276535 72.9224797,18.1651691 72.8970769,18.620132 C72.8716742,19.075133 72.8337541,19.6439224 72.7829486,20.3264239 C72.8676244,20.378904 72.99427,20.3920227 73.1636217,20.3657755 C73.3326052,20.3395284 73.4592508,20.2826533 73.5439266,20.1951501 C73.5947321,20.1951501 73.6286025,20.0551528 73.6451695,19.775158 C73.6621046,19.4951632 73.6790398,19.136389 73.695975,18.6989115 C73.7129101,18.2613959 73.7383129,17.7844524 73.7721832,17.2682716 C73.8060536,16.7520527 73.8609088,16.2619666 73.937117,15.7982419 C74.0129571,15.3345173 74.1145681,14.9275916 74.2412137,14.5776172 C74.3682275,14.2276047 74.5416288,14.0001042 74.7614178,13.8950776 L74.7614178,13.8949633 Z M77.366142,11.6060581 C77.2664935,11.4859713 77.1624967,11.370252 77.0541516,11.2587881 C76.9461689,11.1473243 76.8421721,11.0230194 76.7421613,10.885836 C76.5258334,10.6114692 76.3178399,10.2427726 76.1181805,9.77974601 C75.9185212,9.31675677 75.7478505,8.81087672 75.6065308,8.26214321 C75.4648488,7.71340969 75.3691862,7.16034603 75.3195431,6.60302688 C75.2695377,6.04567041 75.2818579,5.54837599 75.356866,5.11110631 C75.4318742,4.67383662 75.585514,4.3308595 75.8185103,4.08220483 C76.0515066,3.83353149 76.3761795,3.7349461 76.7921667,3.78638894 C76.9584891,3.82067172 77.0918369,4.01788729 77.1914854,4.37800579 C77.2914962,4.73811683 77.3621561,5.17971666 77.4038273,5.70273063 C77.4454984,6.22574459 77.4705012,6.80019766 77.478473,7.42612716 C77.4868073,8.05209399 77.4828213,8.65222928 77.4661529,9.22671968 C77.4494844,9.8012474 77.42883,10.30276 77.4038273,10.7315187 C77.3788245,11.1602401 77.366142,11.4517408 77.366142,11.6060581 L77.366142,11.6060581 Z M92.5431073,28.8340608 C92.5944988,28.7289805 92.6287598,28.6501607 92.6458903,28.5976396 C92.6630208,28.5451185 92.6630208,28.4925974 92.6458903,28.4400381 C92.6287598,28.387517 92.5944988,28.3262678 92.5434797,28.2562142 L92.3125904,27.9410494 C92.2611989,27.9235551 92.0087102,27.7178157 91.5554968,27.3238692 C91.1022834,26.9298846 90.5850168,26.3214325 90.0033246,25.4985128 C89.4220049,24.6756312 88.8447815,23.6382058 88.2716546,22.3862748 C87.6989001,21.1343437 87.2754788,19.6503745 87.0017632,17.9345578 C87.0017632,17.8645042 86.9805363,17.667531 86.9377101,17.3436381 C86.8948838,17.0197452 86.85243,16.6345269 86.8096037,16.1880212 C86.7667775,15.7415536 86.7366129,15.2512549 86.7198548,14.7172394 C86.7027243,14.1832621 86.7280476,13.6711241 86.7965696,13.1808254 C86.9164831,12.8656606 87.0490583,12.6205493 87.1942951,12.4454536 C87.339532,12.2703578 87.6091511,12.0602352 88.0024078,11.815124 C88.4641865,11.7275761 88.9430957,11.7800972 89.4391354,11.9726873 C89.935175,12.1653155 90.4226494,12.4497986 90.9015586,12.8262888 C91.3804678,13.2027409 91.8336812,13.6447873 92.2611989,14.1525803 C92.6887166,14.6604114 93.0693116,15.1856226 93.4026115,15.7284043 C93.7362838,16.2712241 94.0055306,16.8096226 94.2107242,17.3436381 C94.4159178,17.8776536 94.527266,18.3548029 94.5443965,18.7750099 C94.424483,18.7750099 94.2237583,18.7137226 93.9414774,18.5911479 C93.6591966,18.4685733 93.3430272,18.3241211 92.9922243,18.1577916 C92.6417939,17.9915001 92.2868947,17.8207493 91.9275266,17.6456536 C91.5685309,17.4705578 91.2605543,17.339255 91.0039692,17.2517071 C90.7816451,17.3567874 90.5891132,17.4880902 90.4267459,17.6456536 C90.2643785,17.803255 90.2003254,18.0571325 90.234214,18.407324 C90.3883885,18.407324 90.6319395,18.4686114 90.9656118,18.5911479 C91.2989117,18.7137226 91.688072,18.8669409 92.1327202,19.0507648 C92.5773683,19.2346269 93.0477123,19.4447494 93.5437519,19.6811325 C94.0397916,19.9174775 94.5227972,20.1538607 94.9931411,20.3902438 C95.4638575,20.6266269 95.8913751,20.8542438 96.2760666,21.0730945 C96.660758,21.2919452 96.9642658,21.4801522 97.1865898,21.6377536 C97.3407643,21.6377536 97.5031317,21.6946578 97.6740643,21.8084663 C97.8453693,21.9222747 98.0077366,21.979179 98.1615387,21.979179 C98.1272777,21.7865889 98.0032678,21.554627 97.7895089,21.2831789 C97.5757501,21.011769 97.3362955,20.7491635 97.0715176,20.495286 C96.8063672,20.2414086 96.5412169,20.0050254 96.2760666,19.7861748 C96.0109162,19.5673241 95.8012538,19.4141057 95.6474517,19.326596 L95.6474517,18.6568565 L95.7115049,17.4093086 L95.96809,16.0961283 L96.5453133,15.2294156 C96.4429027,14.8792621 96.3058587,14.6997832 96.1349261,14.6910551 C95.9639936,14.6822889 95.7926886,14.7567256 95.621756,14.9142889 C95.4508234,15.0718903 95.3055865,15.2819748 95.185673,15.5446185 C95.066132,15.8072622 94.99761,16.0348791 94.9804795,16.2274692 C94.5700923,15.7022199 94.1593327,15.1637832 93.7489455,14.6122734 C93.3385583,14.0607255 92.8682144,13.4697677 92.3379137,12.8394381 C92.0641982,12.5943269 91.8120819,12.3798212 91.5811926,12.1959973 C91.3503032,12.0121734 91.1194139,11.8414226 90.8885245,11.6838593 C90.6576352,11.526296 90.4181806,11.386227 90.1701608,11.2636523 C89.9221409,11.1410395 89.6443289,11.0272692 89.3363524,10.9221888 C88.9944872,10.8171466 88.6820418,10.742748 88.4001333,10.698955 C88.1178525,10.655162 87.8527022,10.655162 87.6046823,10.698955 C87.3566625,10.742748 87.1216767,10.8521734 86.8993526,11.0272692 C86.6770285,11.202365 86.4547045,11.4650086 86.2323804,11.8152002 C85.8387513,12.690641 85.6380265,13.5923424 85.6294613,14.5203424 C85.620896,15.4483806 85.7106449,16.4726185 85.898708,17.5932087 C86.0867711,18.8013467 86.3176605,19.8957144 86.591376,20.8761975 C86.8650916,21.8566805 87.1857299,22.762765 87.5532908,23.594489 C87.9212242,24.426175 88.3528383,25.1922286 88.8488779,25.8925355 C89.3449176,26.5928805 89.9180445,27.2670793 90.5678863,27.9148651 C90.6364083,27.9323976 90.7388189,27.9936468 90.8758629,28.0987271 C91.0125345,28.2037694 91.1708054,28.3131947 91.3503032,28.4270031 C91.5298011,28.5408116 91.722333,28.6414707 91.9275266,28.7290186 C92.1327202,28.8165665 92.3379137,28.8515552 92.5431073,28.8340608 L92.5431073,28.8340608 Z M99.3440044,19.2256565 C99.3947541,19.2429758 99.5395945,19.2907454 99.7777847,19.368739 C100.015975,19.4467702 100.211565,19.4597503 100.364555,19.4077546 C100.857975,19.4251117 101.236561,19.2950847 101.500311,19.0177491 C101.764061,18.7403758 101.785176,18.2029863 101.564026,17.4056938 C101.240636,16.5216537 100.811301,15.7849599 100.27528,15.1956124 C99.7392594,14.6062272 99.1058142,14.0428399 98.3742036,13.5055258 C98.5442336,13.0548461 98.7994638,12.8035084 99.1395239,12.7515127 C99.4799544,12.699517 99.8370545,12.755852 100.211565,12.9205176 C100.585705,13.0851832 100.951696,13.3061838 101.308796,13.5835194 C101.665896,13.8608927 101.955206,14.1035518 102.176356,14.3115724 C102.533827,14.6235843 102.818692,14.887902 103.031322,15.1046011 C103.243952,15.3212624 103.469548,15.5856179 103.707738,15.8976298 C103.758488,15.9323062 103.788493,15.9279292 103.797013,15.8845743 C103.805533,15.8412571 103.801088,15.7762437 103.784048,15.6896093 C103.767008,15.6029372 103.741448,15.4815888 103.707738,15.325564 C103.656618,15.2042155 103.605498,15.0958848 103.554378,15.0005342 C103.503257,14.9051836 103.431022,14.8011922 103.337673,14.6885223 C103.243952,14.5758524 103.120597,14.4415239 102.967607,14.285499 C102.814247,14.1295119 102.627177,13.9214914 102.406027,13.6614752 C102.150796,13.418816 101.904086,13.1804584 101.665896,12.9464777 C101.427706,12.7124593 101.176921,12.5087781 100.91317,12.3354339 C100.64942,12.1620898 100.36048,12.0407413 100.04561,11.9713886 C99.7307394,11.9020358 99.3691941,11.9020358 98.9609738,11.9713886 C98.6209138,12.092737 98.3486435,12.222764 98.1445334,12.3614318 C97.9404233,12.5000618 97.7829881,12.6430689 97.6722278,12.7904529 C97.5618379,12.9377992 97.4810829,13.0721277 97.4299628,13.1934762 C97.3788426,13.3148246 97.3447625,13.418816 97.3277225,13.5054881 C97.2428927,13.8521387 97.2088126,14.3201754 97.2258526,14.9095229 C97.2428927,15.4989081 97.4129227,16.2615997 97.7363131,17.1976355 C97.9574633,17.6829916 98.1956535,18.0946557 98.4505133,18.4326654 C98.7057436,18.7706752 99.003574,19.0350307 99.3440044,19.2256942 L99.3440044,19.2256565 Z M98.1615387,14.7392173 C98.3962406,14.8626171 98.6709753,15.0345174 98.9861353,15.2548413 C99.3016877,15.4751652 99.5991861,15.7307516 99.8786306,16.0216007 C100.157683,16.3124497 100.401019,16.6341487 100.60864,16.9866976 C100.815868,17.3392082 100.92851,17.7093692 100.946564,18.0971807 C101.000726,18.3615924 100.991699,18.5466921 100.919483,18.6524414 C100.883375,18.7053161 100.847267,18.7317534 100.811159,18.7317534 C100.505026,18.8727653 100.1985,18.8286775 99.8919748,18.5995284 C99.5854494,18.3703793 99.3063974,18.0442677 99.054034,17.621232 C98.8016705,17.1981963 98.5897323,16.7266985 98.4186119,16.206662 C98.2474914,15.6866638 98.1615387,15.1975156 98.1615387,14.7392173 L98.1615387,14.7392173 Z M104.746666,19.9586745 C104.746666,19.4683495 104.742091,18.9781769 104.733323,18.4878519 C104.724555,17.997565 104.715787,17.5248115 104.707019,17.0695533 C104.69825,16.6143332 104.689482,16.1853369 104.680714,15.7825645 C104.671946,15.3797921 104.658984,15.0208532 104.641448,14.7057096 C104.641448,14.7757288 104.680714,14.9464887 104.759628,15.2178751 C104.838542,15.4892614 104.947954,15.8000598 105.087864,16.1502702 C105.227774,16.5005186 105.381027,16.8725695 105.547622,17.2665371 C105.713837,17.6605428 105.893394,18.0107151 106.085914,18.3171682 C106.278433,18.6235832 106.475527,18.8643624 106.676814,19.0394675 C106.878102,19.2145346 107.066427,19.2670967 107.24141,19.1970393 C107.626448,19.0219342 107.897882,18.768005 108.055709,18.435328 C108.213156,18.1026891 108.326761,17.7217953 108.396907,17.2927991 C108.467052,16.8638409 108.537198,16.386666 108.606962,15.8613504 C108.677108,15.336073 108.834554,14.7844955 109.079683,14.206656 C109.184901,13.9439982 109.338154,13.7513978 109.539441,13.6288165 C109.740729,13.5062353 109.933248,13.4186827 110.116999,13.3661588 C110.301131,13.3136348 110.449809,13.2829895 110.563796,13.2742609 C110.677401,13.2654942 110.716668,13.2348489 110.681976,13.182325 C110.243947,12.8496099 109.867677,12.7357954 109.552403,12.8408813 C109.23751,12.9459292 108.970271,13.1779417 108.751447,13.5368806 C108.532623,13.8958577 108.353066,14.3248539 108.213156,14.8239075 C108.073246,15.322923 107.946297,15.8044431 107.832311,16.2684681 C107.718705,16.732493 107.618062,17.1264987 107.53038,17.450409 C107.442697,17.7743193 107.346629,17.9363125 107.24141,17.9363125 C107.083964,17.9187791 106.913174,17.7699359 106.729423,17.4897829 C106.545672,17.2095917 106.357347,16.8594195 106.164827,16.4391518 C105.972308,16.0189222 105.788176,15.5592806 105.613193,15.0602652 C105.43821,14.5612116 105.276189,14.0928415 105.127511,13.6550785 C104.978452,13.2173155 104.860272,12.8408432 104.772971,12.5256615 C104.685289,12.2104798 104.63268,12.0178794 104.615143,11.947822 C104.352478,11.947822 104.190457,11.9390935 104.129461,11.9215601 C104.068084,11.9040648 103.96744,11.9915793 103.82753,12.1841797 C103.914831,13.7250977 103.94571,15.1828846 103.919405,16.5573497 C103.893101,17.9317767 103.853453,19.1269058 103.801225,20.1425082 C103.801225,20.3001181 103.840492,20.378904 103.919405,20.378904 C103.997938,20.378904 104.08562,20.3439135 104.18207,20.2738562 C104.278139,20.2037988 104.378783,20.1337415 104.484001,20.0636842 C104.588839,19.993665 104.676521,19.9586363 104.746666,19.9586363 L104.746666,19.9586745 Z M111.323824,23.5052336 C111.489509,23.5416879 111.58856,23.432206 111.621697,23.1768276 C111.654834,22.9214492 111.621697,22.7298856 111.522286,22.6022163 C111.340393,22.4380133 111.224773,22.2966041 111.175068,22.1780682 C111.125362,22.0594926 111.009743,21.9819776 110.827489,21.9454837 C110.728438,21.9637505 110.641634,21.9683172 110.567075,21.9591838 C110.492517,21.9500901 110.430565,22.100593 110.38086,22.4106924 C110.447134,22.6113497 110.550507,22.812007 110.691339,23.0126643 C110.831811,23.2133216 111.04288,23.3775246 111.323824,23.5052336 Z M111.54159,20.039542 C111.627338,19.2050455 111.687362,18.2879736 111.721288,17.288364 C111.755588,16.2887166 111.815611,15.2412345 111.901359,14.1459933 C111.969585,13.5896875 112.038183,13.15505 112.106782,12.8421185 C112.175007,12.5291871 112.226456,12.2336638 112.260755,11.9554731 C111.986734,11.9033241 111.772737,11.9076762 111.618763,11.9685292 C111.464417,12.0293444 111.319018,12.1032536 111.182194,12.1901433 C111.147895,12.468334 111.109122,12.929046 111.066621,13.5722793 C111.023747,14.2154747 110.980873,14.9152468 110.937998,15.6715199 C110.895124,16.4277552 110.85225,17.1623059 110.809749,17.8750584 C110.766875,18.5878489 110.728102,19.1528966 110.694176,19.5701259 C110.762401,19.6048666 110.818324,19.6570156 110.860825,19.7265727 C110.903699,19.7961299 110.951047,19.8569829 111.002123,19.9091318 C111.053572,19.9612808 111.12217,20.0047634 111.207546,20.0395042 C111.293294,20.0742827 111.404766,20.0742827 111.54159,20.0395042 L111.54159,20.039542 Z M115.636433,19.2256565 C115.687553,19.2429758 115.832023,19.2907454 116.070213,19.368739 C116.308403,19.4467702 116.503993,19.4597503 116.656983,19.4077546 C117.150404,19.4251117 117.528989,19.2950847 117.792739,19.0177491 C118.05649,18.7403758 118.077604,18.2029863 117.856454,17.4056938 C117.533064,16.5216537 117.103729,15.7849599 116.567708,15.1956124 C116.031688,14.6062272 115.398242,14.0428399 114.666632,13.5055258 C114.836662,13.0548461 115.091892,12.8035084 115.432323,12.7515127 C115.772383,12.699517 116.129483,12.755852 116.503993,12.9205176 C116.878133,13.0851832 117.244124,13.3061838 117.601224,13.5835194 C117.958695,13.8608927 118.247634,14.1035518 118.468785,14.3115724 C118.826255,14.6235843 119.11112,14.887902 119.32375,15.1046011 C119.536381,15.3212624 119.761976,15.5856179 120.000166,15.8976298 C120.051286,15.9323062 120.080921,15.9279292 120.089441,15.8845743 C120.097961,15.8412571 120.093516,15.7762437 120.076476,15.6896093 C120.059436,15.6029372 120.033876,15.4815888 120.000166,15.325564 C119.949046,15.2042155 119.897926,15.0958848 119.846806,15.0005342 C119.796056,14.9051836 119.723451,14.8011922 119.630101,14.6885223 C119.536381,14.5758524 119.413025,14.4415239 119.260035,14.285499 C119.107045,14.1295119 118.919605,13.9214914 118.698455,13.6614752 C118.443225,13.418816 118.196514,13.1804584 117.958695,12.9464777 C117.720504,12.7124593 117.469349,12.5087781 117.205599,12.3354339 C116.941848,12.1620898 116.652908,12.0407413 116.338038,11.9713886 C116.023168,11.9020358 115.661622,11.9020358 115.253402,11.9713886 C114.913342,12.092737 114.641072,12.222764 114.436962,12.3614318 C114.232851,12.5000618 114.075416,12.6430689 113.964656,12.7904529 C113.854266,12.9377992 113.773511,13.0721277 113.722391,13.1934762 C113.671271,13.3148246 113.637191,13.418816 113.620151,13.5054881 C113.535321,13.8521387 113.501241,14.3201754 113.518281,14.9095229 C113.535321,15.4989081 113.705351,16.2615997 114.028741,17.1976355 C114.249892,17.6829916 114.488082,18.0946557 114.743312,18.4326654 C114.998542,18.7706752 115.296002,19.0350307 115.636433,19.2256942 L115.636433,19.2256565 Z M114.454359,14.7392173 C114.688669,14.8626171 114.963404,15.0345174 115.278563,15.2548413 C115.594116,15.4751652 115.891614,15.7307516 116.171059,16.0216007 C116.450503,16.3124497 116.69384,16.6341487 116.901068,16.9866976 C117.108297,17.3392082 117.220938,17.7093692 117.238992,18.0971807 C117.293154,18.3615924 117.284127,18.5466921 117.211911,18.6524414 C117.175803,18.7053161 117.139695,18.7317534 117.103979,18.7317534 C116.797454,18.8727653 116.490928,18.8286775 116.184403,18.5995284 C115.87827,18.3703793 115.598826,18.0442677 115.346462,17.621232 C115.094099,17.1981963 114.882161,16.7266985 114.71104,16.206662 C114.53992,15.6866638 114.453967,15.1975156 114.453967,14.7392173 L114.454359,14.7392173" id="path26" fill="#FFFFFF" fill-rule="nonzero"></path>
                                </g>
                            </g>
                        </g>
                    </g>
                </g>
            </g>
        </g>
    </g>
</svg>