<?xml version="1.0" encoding="UTF-8"?>
<svg width="53px" height="53px" viewBox="0 0 53 53" version="1.1" xmlns="http://www.w3.org/2000/svg" xmlns:xlink="http://www.w3.org/1999/xlink">
    <title>Verified-References</title>
    <g id="Page-1" stroke="none" stroke-width="1" fill="none" fill-rule="evenodd">
        <g id="Verified-References" transform="translate(0.007130, 0.008130)" fill="#25373F" fill-rule="nonzero">
            <path d="M31.8068223,52.0005602 C30.3912324,52.0005602 29.0623112,51.3360996 27.9645067,50.7583077 C27.2711565,50.4116326 26.4333583,49.9782888 26.0000144,49.9782888 C25.5666706,49.9782888 24.6999828,50.4116326 24.0355222,50.7583077 C22.6488218,51.4805475 20.9154463,52.3472353 19.0664836,51.8561122 C17.1597705,51.3649892 16.1197452,49.6893929 15.2530575,48.3604716 C14.8774928,47.7537902 14.3574802,46.9448817 14.0108051,46.7426545 C13.66413,46.5404274 12.739663,46.5115378 11.9596441,46.4537586 C10.3996061,46.3670898 8.46400348,46.2804211 7.07730308,44.9226103 C5.69060269,43.5070203 5.60393391,41.5714176 5.51726514,40.0113797 C5.48837554,39.2602503 5.43059636,38.3068938 5.22836922,37.9602187 C5.05503167,37.6424332 4.21723352,37.1224205 3.63944168,36.7468558 C2.31052047,35.8801681 0.663813753,34.8112532 0.143801105,32.9334298 C-0.347321952,31.0844959 0.519365795,29.3511204 1.24160558,27.96442 C1.58828068,27.2710698 2.02162456,26.4332716 2.02162456,25.9999278 C2.02162456,25.5665839 1.58828068,24.6998962 1.24160558,24.0354355 C0.519365795,22.6487352 -0.347321952,20.9153597 0.143801105,19.0664836 C0.634924161,17.1597705 2.31052047,16.1197452 3.63944168,15.2530575 C4.24612311,14.8774928 5.05503167,14.3574802 5.25725881,14.0108051 C5.45948595,13.66413 5.48837554,12.739663 5.54615473,11.9596441 C5.6328235,10.3996061 5.71949228,8.46400348 7.07730308,7.07730308 C8.49289307,5.69060269 10.4284957,5.60393391 11.9885336,5.51726514 C12.739663,5.48837554 13.6930195,5.43059636 14.0396946,5.22836922 C14.3574802,5.05503167 14.8774928,4.21723352 15.2530575,3.63944168 C16.1197452,2.31052047 17.1886601,0.663813753 19.0664836,0.143801105 C20.9154463,-0.347321952 22.6488218,0.519365795 24.0355222,1.24160558 C24.7288724,1.58828068 25.5666706,2.02162456 26.0000144,2.02162456 C26.4333583,2.02162456 27.3000461,1.58828068 27.9645067,1.24160558 C29.3512071,0.548255387 31.0845826,-0.347321952 32.9335164,0.143801105 C34.8402295,0.634924161 35.8802548,2.31052047 36.7469425,3.63944168 C37.1225072,4.24612311 37.6425198,5.05503167 37.9891949,5.25725881 C38.33587,5.45948595 39.260337,5.48837554 40.0403559,5.54615473 C41.6003939,5.6328235 43.5359965,5.71949228 44.9226969,7.07730308 C46.3093973,8.49289307 46.3960661,10.4284957 46.4827349,11.9885336 C46.5116245,12.739663 46.5694036,13.6930195 46.7716308,14.0396946 C46.9449683,14.3574802 47.7827665,14.8774928 48.3605583,15.2530575 C49.6894795,16.1197452 51.3361862,17.1886601 51.8561989,19.0664836 C52.347322,20.9153597 51.4806342,22.6487352 50.7583944,24.0354355 C50.4117193,24.7287857 49.9783754,25.5665839 49.9783754,25.9999278 C49.9783754,26.4332716 50.4117193,27.2999594 50.7583944,27.96442 C51.4806342,29.3511204 52.347322,31.0844959 51.8561989,32.9334298 C51.3650758,34.8401428 49.6894795,35.8801681 48.3605583,36.7468558 C47.7538769,37.1224205 46.9449683,37.6424332 46.7427412,37.9891083 C46.540514,38.3357834 46.5116245,39.2602503 46.4538453,40.0402693 C46.3671765,41.6003072 46.2805077,43.5359099 44.9226969,44.9226103 C43.5071069,46.3093106 41.5715043,46.3959794 40.0114664,46.4826482 C39.260337,46.5115378 38.3069805,46.569317 37.9603054,46.7715441 C37.6425198,46.9448817 37.1225072,47.7826798 36.7469425,48.3604716 C35.8802548,49.6893929 34.8113399,51.3360996 32.9335164,51.8561122 C32.5579517,51.9716706 32.182387,52.0005602 31.8068223,52.0005602 Z M20.2220672,4.33279188 C20.2220672,4.33279188 20.2220672,4.33279188 20.1931777,4.33279188 C19.9042817,4.44835025 19.2398211,5.43059636 18.9220356,5.9794986 C18.2286854,7.04841349 17.4486665,8.26177633 16.206414,8.98401612 C14.935272,9.70625591 13.4907924,9.79292469 12.1907608,9.85070387 C11.5551898,9.87959346 10.3707165,9.93737265 10.1107102,10.1395998 C9.93737265,10.3707165 9.87959346,11.5263002 9.85070387,12.1618712 C9.79292469,13.4619028 9.70625591,14.9063824 8.98401612,16.1486348 C8.26177633,17.3908873 7.04841349,18.1709062 5.9794986,18.8642564 C5.43059636,19.2109315 4.44835025,19.8465026 4.33279188,20.1642881 C4.30390229,20.4820158 4.79502535,21.4642619 5.08392126,22.0420537 C5.66171309,23.1976374 6.35506329,24.497669 6.35506329,25.9710382 C6.35506329,27.4444074 5.69060269,28.744439 5.08392126,29.9000226 C4.79502535,30.4778145 4.2750127,31.4600606 4.33279188,31.7778461 C4.44835025,32.066742 5.43059636,32.7312026 5.9794986,33.0489881 C7.04841349,33.7423383 8.26177633,34.5223573 8.98401612,35.7646097 C9.70625591,37.0357518 9.79292469,38.4802313 9.85070387,39.780263 C9.87959346,40.415834 9.93737265,41.6003072 10.1395998,41.8603135 C10.3707165,42.0336511 11.5263002,42.0914303 12.1618712,42.1203199 C13.4619028,42.1780991 14.9063824,42.2647678 16.1486348,42.9870076 C17.3908873,43.7092474 18.1709062,44.9226103 18.8642564,45.9915251 C19.2109315,46.5404274 19.8465026,47.5226735 20.1642881,47.6382319 C20.4532129,47.7249006 21.4643486,47.1759984 22.0421404,46.8871025 C23.1977241,46.3093106 24.4977557,45.6159604 25.9711249,45.6159604 C27.444494,45.6159604 28.7445256,46.2804211 29.9001093,46.8871025 C30.4779011,47.1759984 31.4023681,47.7249006 31.7779328,47.6382319 C32.0668287,47.5226735 32.7312893,46.5404274 33.0490748,45.9915251 C33.742425,44.9226103 34.522444,43.7092474 35.7646964,42.9870076 C37.0358384,42.2647678 38.480318,42.1780991 39.7803496,42.1203199 C40.4159206,42.0914303 41.6003939,42.0336511 41.8604002,41.831424 C42.0337378,41.6003072 42.0915169,40.4447236 42.1204065,39.8091525 C42.1781857,38.5091209 42.2648545,37.0646413 42.9870943,35.8223889 C43.7093341,34.5801365 44.9226969,33.8001175 45.9916118,33.1067673 C46.540514,32.7600922 47.5227602,32.1245212 47.6383185,31.8067357 C47.6672081,31.4889502 47.1760851,30.5067041 46.8871891,29.9289122 C46.3093973,28.7733286 45.6160471,27.4732969 45.6160471,25.9999278 C45.6160471,24.5265586 46.2805077,23.226527 46.8871891,22.0709433 C47.1760851,21.4931515 47.6672081,20.5109054 47.6383185,20.1931777 C47.5227602,19.8753921 46.5116245,19.2398211 45.9916118,18.893146 C44.9226969,18.1997958 43.7093341,17.4197769 42.9870943,16.1775244 C42.2648545,14.9063824 42.1781857,13.4619028 42.1204065,12.1618712 C42.0915169,11.5263002 42.0337378,10.3418269 41.8315106,10.0818206 C41.6003939,9.90848305 40.4448102,9.85070387 39.8092392,9.82181428 C38.5092076,9.7640351 37.064728,9.67736632 35.8224756,8.95512653 C34.5802231,8.23288674 33.8002042,7.0195239 33.106854,5.95060901 C32.7601789,5.40170677 32.1246079,4.41946066 31.8068223,4.30390229 C31.5179264,4.21723352 30.5067907,4.76613576 29.9289989,5.05503167 C28.7734152,5.6328235 27.4733836,6.3261737 26.0000144,6.3261737 C24.5266453,6.3261737 23.2266137,5.66171309 22.07103,5.05503167 C21.4932382,4.76613576 20.5687712,4.30390229 20.2220672,4.30390229 L20.2220672,4.33279188 Z M21.6376861,36.1401744 C21.0598943,36.1401744 20.510992,35.9090577 20.1065089,35.5046034 L12.8552214,28.2533159 C12.0174232,27.4155178 12.0174232,26.0288174 12.8552214,25.1910192 C13.6930195,24.3532211 15.0797199,24.3532211 15.9175181,25.1910192 L21.6376861,30.9111583 L36.0535923,16.4953099 C36.8913905,15.6575118 38.2780909,15.6575118 39.115889,16.4953099 C39.9536872,17.3331081 39.9536872,18.7198085 39.115889,19.5576066 L23.1688345,35.5046034 C22.7643802,35.9090577 22.2154779,36.1401744 21.6376861,36.1401744 Z" id="Shape"></path>
        </g>
    </g>
</svg>