<?xml version="1.0" encoding="UTF-8"?>
<svg width="52px" height="41px" viewBox="0 0 52 41" version="1.1" xmlns="http://www.w3.org/2000/svg" xmlns:xlink="http://www.w3.org/1999/xlink">
    <title>video-svgrepo-com</title>
    <g id="Page-1" stroke="none" stroke-width="1" fill="none" fill-rule="evenodd">
        <g id="video-svgrepo-com" transform="translate(0.000000, -0.000000)" fill="#25373F" fill-rule="nonzero">
            <path d="M28.9714286,40.1142857 L8.17142857,40.1142857 C6.00421714,40.1142857 3.925792,39.2534629 2.39336686,37.7208 C0.860912,36.1884343 0,34.10992 0,31.9428571 L0,8.17142857 C0,6.00421714 0.860912,3.925792 2.39336686,2.39336686 C3.925792,0.860912 6.00421714,1.77635684e-15 8.17142857,1.77635684e-15 L28.9714286,1.77635684e-15 C31.1384914,1.77635684e-15 33.2170057,0.860912 34.7493714,2.39336686 C36.2820343,3.925792 37.1428571,6.00421714 37.1428571,8.17142857 L37.1428571,31.9428571 C37.1428571,34.10992 36.2820343,36.1884343 34.7493714,37.7208 C33.2170057,39.2534629 31.1384914,40.1142857 28.9714286,40.1142857 Z M8.17142857,4.45714286 C7.18634057,4.45714286 6.24160457,4.84848 5.54504229,5.54504229 C4.84848,6.24160457 4.45714286,7.18634057 4.45714286,8.17142857 L4.45714286,31.9428571 C4.45714286,32.9278857 4.84848,33.8728 5.54504229,34.5693029 C6.24160457,35.2658057 7.18634057,35.6571429 8.17142857,35.6571429 L28.9714286,35.6571429 C29.9564571,35.6571429 30.9013714,35.2658057 31.5978743,34.5693029 C32.2943771,33.8728 32.6857143,32.9278857 32.6857143,31.9428571 L32.6857143,8.17142857 C32.6857143,7.18634057 32.2943771,6.24160457 31.5978743,5.54504229 C30.9013714,4.84848 29.9564571,4.45714286 28.9714286,4.45714286 L8.17142857,4.45714286 Z" id="Shape"></path>
            <path d="M49.7714286,34.1714286 C49.3631543,34.1651886 48.9637943,34.0525714 48.6125714,33.8445714 L33.7554286,24.9302857 C33.4291657,24.7317943 33.15936,24.45248 32.9718629,24.1193829 C32.7846629,23.7862857 32.6860114,23.4106971 32.6857143,23.0285714 L32.6857143,17.0857143 C32.6860114,16.7035886 32.7846629,16.328 32.9718629,15.9952 C33.15936,15.6621029 33.4291657,15.3827886 33.7554286,15.184 L48.6125714,6.26977371 C48.9536914,6.06557714 49.3441371,5.95771429 49.7417143,5.95771429 C50.1392914,5.95771429 50.5297371,6.06557714 50.8708571,6.26977371 C51.2125714,6.46362971 51.4969371,6.74434057 51.6954286,7.08352914 C51.8936229,7.42274743 51.9988114,7.80832 52,8.201232 L52,31.9725714 C51.9988114,32.3656914 51.8936229,32.7510857 51.6954286,33.0904229 C51.4969371,33.4294629 51.2125714,33.7102629 50.8708571,33.904 C50.53568,34.0917943 50.1553371,34.1842057 49.7714286,34.1714286 Z M37.1428571,21.7805714 L47.5428571,28.0205714 L47.5428571,12.0937737 L37.1428571,18.3337143 L37.1428571,21.7805714 Z" id="Shape"></path>
        </g>
    </g>
</svg>