<?xml version="1.0" encoding="UTF-8"?>
<svg width="53px" height="66px" viewBox="0 0 53 66" version="1.1" xmlns="http://www.w3.org/2000/svg" xmlns:xlink="http://www.w3.org/1999/xlink">
    <title>Visa Status Verification</title>
    <g id="Page-1" stroke="none" stroke-width="1" fill="none" fill-rule="evenodd">
        <g id="Visa-Status-Verification" transform="translate(0.582813, 0.000000)" fill="#25373F" fill-rule="nonzero">
            <path d="M42.5205755,0 L9.47955208,0 C4.24283317,0.00102067855 0.00102067855,4.24296075 0,9.48057276 L0,55.8438754 C0.00102067855,61.0784254 4.24283317,65.3212586 9.47955208,65.3234275 L42.5204479,65.3234275 C47.7571668,65.3212586 51.9989793,61.078553 52,55.8438754 L52,9.48057276 C51.9991069,4.24296075 47.7572944,0.00102067855 42.5205755,0 Z M47.7552531,55.8438754 C47.7542324,57.2957907 47.1727008,58.5912869 46.222449,59.5447283 C45.267987,60.4961283 43.9724908,61.076384 42.5205755,61.078553 L9.47955208,61.078553 C8.02763683,61.076384 6.73214058,60.4961283 5.77767855,59.5447283 C4.82729923,58.5912869 4.2458952,57.2957907 4.24487453,55.8438754 L4.24487453,9.48057276 C4.2458952,8.02763683 4.82729923,6.73214058 5.77767855,5.77767855 C6.73214058,4.82729923 8.02648857,4.24602279 9.47955208,4.24487453 L42.5204479,4.24487453 C43.9735114,4.2458952 45.2678594,4.82729923 46.2223215,5.77767855 C47.1725732,6.73226816 47.7541048,8.02763683 47.7552531,9.48057276 L47.7552531,55.8438754 L47.7552531,55.8438754 Z" id="Shape"></path>
            <path d="M26.0011483,14.6551579 C19.5229015,14.6551579 14.2748275,19.9042525 14.2727862,26.3814786 C14.2748275,32.8597254 19.5229015,38.1077994 26.0011483,38.10882 C32.4773537,38.1077994 37.727469,32.8597254 37.727469,26.3814786 C37.727469,19.9042525 32.4773537,14.6551579 26.0011483,14.6551579 Z M19.1352988,19.5166498 C20.1467912,18.5051574 21.3790054,17.7175763 22.7510526,17.2304574 C22.0950114,18.0263315 21.5447381,19.0482859 21.1156704,20.2255111 L18.4926541,20.2255111 C18.6927071,19.9788896 18.9093461,19.7424749 19.1352988,19.5166498 Z M17.746538,21.2671135 L20.778974,21.2671135 C20.3903507,22.6506433 20.1571256,24.2081988 20.1136192,25.8613153 L16.3029158,25.8613153 C16.3931183,24.1791095 16.9102195,22.613261 17.746538,21.2671135 Z M16.3029158,26.9016419 L20.1187226,26.9016419 C20.1612083,28.5556515 20.387161,30.1121863 20.7788464,31.4968644 L17.7464105,31.4968644 C16.9102195,30.1495687 16.3931183,28.5847409 16.3029158,26.9016419 Z M19.1352988,33.2472005 C18.9093461,33.0212478 18.6927071,32.7829193 18.4927816,32.5373186 L21.1157979,32.5373186 C21.3043683,33.0491889 21.5076109,33.5312043 21.738667,33.9757098 C22.0392569,34.5601759 22.3771015,35.0805943 22.7501595,35.5333929 C21.3769641,35.0453809 20.1457706,34.2597136 19.1352988,33.2472005 Z M25.481878,36.0775421 C25.3181867,36.0692491 25.1575574,36.0568734 24.9947592,36.0423287 C24.7408654,35.9262265 24.4869716,35.7708282 24.2361399,35.5656718 C23.4734378,34.9417821 22.7655972,33.8878039 22.2256583,32.5374461 L25.481878,32.5374461 L25.481878,36.0775421 L25.481878,36.0775421 Z M25.481878,31.4968644 L21.8639553,31.4968644 C21.4524943,30.145486 21.1986005,28.5784892 21.1561147,26.9016419 L25.481878,26.9016419 L25.481878,31.4968644 Z M25.481878,25.8611877 L21.1582837,25.8611877 C21.2007694,24.1843404 21.4568322,22.6173437 21.8691863,21.266986 L25.481878,21.266986 L25.481878,25.8611877 L25.481878,25.8611877 Z M25.481878,20.2255111 L22.2319099,20.2255111 C22.3656188,19.8886872 22.5076207,19.5623252 22.6619984,19.2637767 C23.1242382,18.3704278 23.6662185,17.6636079 24.2361399,17.1972854 C24.4869716,16.9941704 24.7408654,16.838772 24.9947592,16.7226699 C25.1574299,16.7082528 25.3180591,16.6957495 25.481878,16.6864358 L25.481878,20.2255111 Z M35.6973394,25.8611877 L31.881405,25.8611877 C31.8409606,24.2092195 31.6129665,22.6505157 31.2233225,21.266986 L34.2535895,21.266986 C35.089908,22.613261 35.6091783,24.1791095 35.6973394,25.8611877 Z M32.8680184,19.5166498 C33.0938435,19.7426025 33.3074205,19.9788896 33.5105356,20.2255111 L30.8844572,20.2255111 C30.6989489,19.7156821 30.4926442,19.2306047 30.2615881,18.7869922 C29.9630397,18.2045675 29.6241744,17.6822353 29.252137,17.2304574 C30.6243118,17.7196176 31.8555053,18.5051574 32.8680184,19.5166498 Z M26.5214392,16.6863082 C26.6841098,16.6956219 26.8447391,16.7081252 27.0053684,16.7225423 C27.2592622,16.8386445 27.513156,16.9940428 27.7639877,17.1971578 C28.5277104,17.8200269 29.23772,18.8740051 29.7744693,20.2253835 L26.5213116,20.2253835 L26.5213116,16.6863082 L26.5214392,16.6863082 Z M26.5214392,21.2671135 L30.1361723,21.2671135 C30.5496747,22.6174713 30.8015271,24.184468 30.8470749,25.8613153 L26.5213116,25.8613153 L26.5213116,21.2671135 L26.5214392,21.2671135 Z M26.5214392,26.9016419 L30.8419715,26.9016419 C30.7974444,28.5806581 30.5435506,30.145486 30.1341309,31.4968644 L26.5214392,31.4968644 L26.5214392,26.9016419 Z M27.7639877,35.5655442 C27.513156,35.7707006 27.2592622,35.9260989 27.0053684,36.0422011 C26.8447391,36.0567458 26.6841098,36.0691215 26.5214392,36.0774145 L26.5214392,32.5373186 L29.7693659,32.5373186 C29.6346363,32.8751632 29.4936551,33.2025458 29.3402982,33.4990529 C28.8780584,34.3935501 28.3340367,35.0992217 27.7639877,35.5655442 Z M32.8680184,33.2472005 C31.8544846,34.2597136 30.6232911,35.0453809 29.249075,35.5333929 C29.9081782,34.7363705 30.4553895,33.7167126 30.8844572,32.5373186 L33.5105356,32.5373186 C33.3074205,32.7829193 33.0939711,33.0212478 32.8680184,33.2472005 Z M34.2535895,31.4968644 L31.2211536,31.4968644 C31.6097769,30.1123139 31.843002,28.5556515 31.8865084,26.9016419 L35.6972118,26.9016419 C35.6091783,28.5847409 35.089908,30.1495687 34.2535895,31.4968644 Z" id="Shape"></path>
            <path d="M14.7856771,44.6119459 L11.4258585,44.6119459 L11.297253,44.7394031 L11.297253,53.1390773 L11.4258585,53.2665345 L13.0424857,53.2665345 L13.1689223,53.1390773 L13.1689223,50.2496639 L13.2456008,50.1740061 L14.7855495,50.1740061 C16.6572188,50.1740061 17.8013995,49.027784 17.8013995,47.3986535 C17.8015271,45.7446439 16.6698497,44.6119459 14.7856771,44.6119459 Z M14.6717439,48.5573788 L13.2457284,48.5573788 L13.1690499,48.4805728 L13.1690499,46.3042309 L13.2457284,46.2275524 L14.6717439,46.2275524 C15.459325,46.2275524 15.9318991,46.6991059 15.9318991,47.3986535 C15.9318991,48.0992217 15.459325,48.5573788 14.6717439,48.5573788 Z" id="Shape"></path>
            <path d="M23.1014005,44.6119459 L21.497149,44.6119459 L21.3312887,44.7394031 L18.3528211,53.1390773 L18.4418753,53.2665345 L20.1104296,53.2665345 L20.2742485,53.1390773 L20.759326,51.6249006 L23.7875516,51.6249006 L24.2850049,53.1390773 L24.4508651,53.2665345 L26.1048747,53.2665345 L26.1939289,53.1390773 L23.2672608,44.7394031 L23.1014005,44.6119459 Z M21.2816582,50.0341731 L22.2599786,47.0049267 L22.2994023,47.0049267 L23.2797641,50.0341731 L21.2816582,50.0341731 Z" id="Shape"></path>
            <path d="M30.7932341,48.0609463 L30.3330356,47.9976642 C29.3423395,47.856683 28.9857399,47.538614 28.9857399,47.0420539 C28.9857399,46.4949702 29.3795943,46.1011159 30.1422963,46.1011159 C30.8552403,46.1011159 31.4916334,46.3301306 32.1548193,46.762388 L32.3330553,46.723985 L33.1082606,45.5664079 L33.0833816,45.3757962 C32.3579343,44.8151885 31.2883908,44.4721129 30.1422963,44.4721129 C28.2726684,44.4721129 27.0746469,45.5281325 27.0746469,47.1189876 C27.0746469,48.6465606 28.0550087,49.473693 29.8127447,49.7161041 L30.2707742,49.7792586 C31.3008941,49.9192192 31.607608,50.2374157 31.607608,50.746224 C31.607608,51.3576104 31.097779,51.7773645 30.1939682,51.7773645 C29.2777816,51.7773645 28.5005349,51.3451071 27.9285721,50.8860569 L27.7378328,50.8995809 L26.7698468,52.0065068 L26.7823501,52.2231458 C27.4580393,52.8719147 28.7679527,53.4066226 30.1172897,53.4066226 C32.3579343,53.4066226 33.5165321,52.2490456 33.5165321,50.6830695 C33.5167872,49.1169658 32.5736802,48.3023368 30.7932341,48.0609463 Z" id="Path"></path>
            <path d="M38.3689655,48.0609463 L37.910936,47.9976642 C36.9180709,47.856683 36.5615989,47.538614 36.5615989,47.0420539 C36.5615989,46.4949702 36.9554533,46.1011159 37.7201967,46.1011159 C38.4332682,46.1011159 39.0695337,46.3301306 39.7306783,46.762388 L39.9089143,46.723985 L40.686161,45.5664079 L40.6592406,45.3757962 C39.9337933,44.8151885 38.8664187,44.4721129 37.7201967,44.4721129 C35.8485274,44.4721129 34.6525473,45.5281325 34.6525473,47.1189876 C34.6525473,48.6465606 35.632909,49.473693 37.3884761,49.7161041 L37.8465056,49.7792586 C38.8787944,49.9192192 39.183467,50.2374157 39.183467,50.746224 C39.183467,51.3576104 38.6735104,51.7773645 37.7699548,51.7773645 C36.8537682,51.7773645 36.0785628,51.3451071 35.5044311,50.8860569 L35.3138194,50.8994533 L34.3480023,52.0063792 L34.3605056,52.2230183 C35.0341535,52.8717871 36.3462358,53.406495 37.6955728,53.406495 C39.9340485,53.406495 41.0926462,52.248918 41.0926462,50.6829419 C41.0925186,49.1169658 40.151453,48.3023368 38.3689655,48.0609463 Z" id="Path"></path>
        </g>
    </g>
</svg>